<svg width="24" height="24" viewBox="0 0 24 24" fill="none" xmlns="http://www.w3.org/2000/svg">
<g clip-path="url(#clip0_38_1222)">
<path d="M19 0H5C2.239 0 0 2.239 0 5V19C0 21.761 2.239 24 5 24H19C21.762 24 24 21.761 24 19V5C24 2.239 21.762 0 19 0Z" fill="white"/>
<path fill-rule="evenodd" clip-rule="evenodd" d="M18.6896 18.3333H15.9235V14.0023C15.9235 12.969 15.9046 11.6406 14.4852 11.6406C13.0447 11.6406 12.8242 12.7658 12.8242 13.9275V18.3333H10.0581V9.42721H12.7135V10.644H12.7503C13.1196 9.94392 14.0226 9.20559 15.3692 9.20559C18.1722 9.20559 18.6896 11.0502 18.6896 13.4481V18.3333ZM6.93871 8.20976C6.05148 8.20976 5.33337 7.49036 5.33337 6.60443C5.33337 5.71914 6.05148 5 6.93871 5C7.82361 5 8.54275 5.71914 8.54275 6.60443C8.54275 7.49036 7.82361 8.20976 6.93871 8.20976ZM5.55408 18.3333H8.32217V9.42721H5.55408V18.3333Z" fill="#29293A"/>
</g>
<defs>
<clipPath id="clip0_38_1222">
<rect width="24" height="24" fill="white"/>
</clipPath>
</defs>
</svg>
