<svg width="410" height="500" viewBox="0 0 410 500" fill="none" xmlns="http://www.w3.org/2000/svg">
<path d="M183.311 55.767C196.731 48.0777 213.269 48.0777 226.689 55.767L383.339 145.525C396.755 153.212 405 167.404 405 182.742V362.258C405 377.596 396.755 391.788 383.339 399.475L226.689 489.233C213.269 496.922 196.731 496.922 183.311 489.233L26.6608 399.475C13.2452 391.788 5 377.596 5 362.258V182.742C5 167.404 13.2452 153.212 26.6608 145.525L183.311 55.767Z" stroke="#DBE2E9" stroke-width="10"/>
<path d="M149 39L205 6.5L260 39V102.5L205 134L149 101.5V39Z" fill="white"/>
<path d="M260.82 30.0015L212.177 1.92317C207.734 -0.641058 202.266 -0.641058 197.823 1.92317L149.18 30.0015C144.744 32.5722 142.013 37.3096 142 42.4381V98.6076C142.006 103.736 144.744 108.467 149.18 111.038L197.823 139.122C202.266 141.68 207.734 141.68 212.177 139.122L260.82 111.038C265.256 108.467 267.987 103.73 268 98.6076V42.4445C267.987 37.316 265.256 32.5786 260.82 30.0079V30.0015ZM253.474 97.6716C253.474 98.1909 253.198 98.6717 252.749 98.9281L212.279 122.295V76.35C212.279 76.35 212.337 76.2795 212.375 76.2411L238.107 61.3557C238.749 60.9326 239.159 60.2338 239.197 59.4646V45.5023C239.197 45.1049 238.883 44.7779 238.479 44.7715C238.351 44.7715 238.216 44.8036 238.107 44.8741L205.176 64.0289H205.016L172.078 44.8869C171.739 44.6818 171.29 44.7907 171.085 45.1369C171.014 45.2523 170.982 45.3805 170.982 45.5151V59.4774C171.027 60.2467 171.431 60.9454 172.072 61.3685L197.811 76.2539C197.849 76.2923 197.894 76.3885 197.907 76.3629V122.404L157.251 98.9281C156.802 98.6717 156.52 98.1909 156.52 97.6716V43.3612C156.52 42.8419 156.802 42.3611 157.251 42.1047L204.279 14.9623C204.728 14.7059 205.279 14.7059 205.734 14.9623L252.756 42.1111C253.204 42.374 253.48 42.8483 253.48 43.3676V97.6716H253.474Z" fill="#0060FF"/>
</svg>
