<svg width="24" height="24" viewBox="0 0 24 24" fill="none" xmlns="http://www.w3.org/2000/svg">
<g clip-path="url(#clip0_38_1233)">
<path d="M19 0H5C2.239 0 0 2.239 0 5V19C0 21.761 2.239 24 5 24H19C21.762 24 24 21.761 24 19V5C24 2.239 21.762 0 19 0Z" fill="white"/>
<path d="M18.3347 17.4853C19.3507 16.7487 20 15.66 20 14.4493C20 12.232 17.842 10.434 15.1807 10.434C12.5193 10.434 10.3613 12.232 10.3613 14.4493C10.3613 16.6673 12.5193 18.4653 15.1807 18.4653C15.7307 18.4653 16.2613 18.3873 16.754 18.2453L16.8953 18.224C16.988 18.224 17.072 18.2527 17.1513 18.298L18.2067 18.9073L18.2993 18.9373C18.388 18.9373 18.46 18.8653 18.46 18.7767L18.434 18.6593L18.2167 17.8493L18.2 17.7467C18.2 17.6387 18.2533 17.5433 18.3347 17.4853ZM9.78333 6C6.58933 6 4 8.15733 4 10.8193C4 12.2713 4.77867 13.5787 5.998 14.462C6.096 14.5313 6.16 14.646 6.16 14.776L6.14 14.8987L5.87933 15.8707L5.848 16.0113C5.848 16.118 5.93467 16.2047 6.04067 16.2047L6.15267 16.1687L7.41867 15.4373C7.51333 15.3827 7.614 15.3487 7.72533 15.3487L7.89533 15.374C8.486 15.544 9.12333 15.6387 9.78333 15.6387L10.1007 15.6307C9.97533 15.2547 9.90667 14.8587 9.90667 14.45C9.90667 12.0227 12.268 10.0547 15.1807 10.0547L15.4947 10.0627C15.0593 7.76067 12.668 6 9.78333 6ZM13.574 13.8073C13.2193 13.8073 12.932 13.5193 12.932 13.1647C12.932 12.8093 13.2193 12.522 13.574 12.522C13.9293 12.522 14.2167 12.8093 14.2167 13.1647C14.2167 13.5193 13.9293 13.8073 13.574 13.8073ZM16.7873 13.8073C16.432 13.8073 16.1447 13.5193 16.1447 13.1647C16.1447 12.8093 16.432 12.522 16.7873 12.522C17.142 12.522 17.4293 12.8093 17.4293 13.1647C17.4293 13.5193 17.142 13.8073 16.7873 13.8073ZM7.85533 10.048C7.42933 10.048 7.08467 9.70267 7.08467 9.27733C7.08467 8.85133 7.42933 8.506 7.85533 8.506C8.28133 8.506 8.62667 8.85133 8.62667 9.27733C8.62667 9.70267 8.28133 10.048 7.85533 10.048ZM11.7107 10.048C11.2847 10.048 10.94 9.70267 10.94 9.27733C10.94 8.85133 11.2847 8.506 11.7107 8.506C12.1367 8.506 12.482 8.85133 12.482 9.27733C12.482 9.70267 12.1367 10.048 11.7107 10.048Z" fill="#29293A"/>
</g>
<defs>
<clipPath id="clip0_38_1233">
<rect width="24" height="24" fill="white"/>
</clipPath>
</defs>
</svg>
