<?xml version="1.0" encoding="utf-8"?>
<!-- Generator: Adobe Illustrator 23.0.1, SVG Export Plug-In . SVG Version: 6.00 Build 0)  -->
<svg version="1.1" id="Layer_1" xmlns="http://www.w3.org/2000/svg" xmlns:xlink="http://www.w3.org/1999/xlink" x="0px" y="0px"
	 viewBox="0 0 309 345.8" style="enable-background:new 0 0 309 345.8;" xml:space="preserve">
<style type="text/css">
	.st0{fill:#FFFFFF;}
</style>
<title>Yerun-symbol</title>
<path class="st0" d="M291.3,73.6L172.1,4.8c-10.9-6.3-24.3-6.3-35.2,0L17.7,73.6C6.8,79.9,0.1,91.5,0.1,104.1l0,0v137.6
	c0,12.6,6.7,24.2,17.6,30.5L136.9,341c10.9,6.3,24.3,6.3,35.2,0l119.2-68.8c10.9-6.3,17.6-17.9,17.6-30.5V104.1l0,0
	C308.8,91.5,302.1,79.9,291.3,73.6z M273.3,239.4c0,1.3-0.7,2.4-1.8,3.1l-99.2,57.3V187.2c0,0.1,0.1-0.2,0.2-0.3l63.1-36.5
	c1.6-1,2.6-2.8,2.7-4.6v-34.2c0-1-0.8-1.8-1.8-1.8c-0.3,0-0.6,0.1-0.9,0.2L154.9,157h-0.2h-0.2l-80.7-46.9c-0.8-0.5-1.9-0.2-2.4,0.6
	c-0.2,0.3-0.3,0.6-0.3,0.9v34.2c0.1,1.9,1.1,3.6,2.7,4.6l63.1,36.5c0.1,0.1,0.2,0.3,0.2,0.3V300l-99.6-57.5
	c-1.1-0.6-1.8-1.8-1.8-3.1V106.4c0-1.3,0.7-2.4,1.8-3.1l115.2-66.5c1.1-0.6,2.5-0.6,3.6,0l115.2,66.5c1.1,0.6,1.8,1.8,1.8,3.1
	L273.3,239.4z"/>
</svg>
