<svg width="135" height="31" viewBox="0 0 135 31" fill="none" xmlns="http://www.w3.org/2000/svg">
<g clip-path="url(#clip0_178_235)">
<path d="M103.976 0.200317H99.8243C99.5801 0.200317 99.3824 0.398347 99.3824 0.642974V19.5258C99.3824 24.2786 97.2424 26.5967 92.8344 26.5967C88.4032 26.5967 86.333 24.3485 86.333 19.5258V0.642974C86.333 0.398347 86.1353 0.200317 85.891 0.200317H81.739C81.4947 0.200317 81.297 0.398347 81.297 0.642974V19.654C81.297 23.8942 82.7857 31 92.7879 31C103.279 31 104.407 23.0671 104.407 19.654V0.642974C104.418 0.398347 104.221 0.200317 103.976 0.200317Z" fill="white"/>
<path d="M133.762 0.200309H129.866C129.622 0.200309 129.424 0.398339 129.424 0.642966V22.3798L116.281 0.409988C116.2 0.28185 116.061 0.18866 115.898 0.18866H111.35C111.106 0.18866 110.908 0.386689 110.908 0.631316V29.8584C110.908 30.103 111.106 30.301 111.35 30.301H115.246C115.491 30.301 115.688 30.103 115.688 29.8584V8.76225L128.645 30.0914C128.726 30.2195 128.866 30.301 129.028 30.301H133.75C133.995 30.301 134.192 30.103 134.192 29.8584V0.642966C134.204 0.398339 134.006 0.200309 133.762 0.200309Z" fill="white"/>
<path d="M48.0223 25.7347H34.1471V17.266H45.859C46.1032 17.266 46.3009 17.0679 46.3009 16.8233V13.1189C46.3009 12.9093 46.1498 12.7345 45.952 12.6996C45.9288 12.6879 45.8939 12.6763 45.859 12.6763H34.1471V4.78999H36.5081H36.5197H45.7078C45.859 4.78999 45.9986 4.72009 46.08 4.59196C46.3009 4.23084 46.9406 3.11255 47.5105 2.11074C47.8827 1.44676 48.2432 0.841012 48.4293 0.514843C48.4642 0.456599 48.4642 0.375059 48.4293 0.316814C48.3944 0.25857 48.3363 0.223621 48.2665 0.223621H47.6617C47.6501 0.223621 47.6385 0.211975 47.6385 0.211975H29.3786C29.1344 0.211975 28.9366 0.410005 28.9366 0.654632V29.8934C28.9366 30.138 29.1344 30.336 29.3786 30.336H48.0223C48.2665 30.336 48.4642 30.138 48.4642 29.8934V26.2007C48.4642 25.9327 48.2665 25.7347 48.0223 25.7347Z" fill="white"/>
<path d="M68.55 17.7086C75.2143 16.3107 75.8074 11.1503 75.8074 9.40295C75.8074 9.34471 75.8074 9.28646 75.8074 9.22822C75.8074 9.20492 75.8074 9.18162 75.8074 9.15832C75.8074 4.83658 72.9231 0.211975 64.8283 0.211975H54.64C54.3957 0.211975 54.198 0.410005 54.198 0.654632V29.8817C54.198 30.1263 54.3957 30.3244 54.64 30.3244H58.792C59.0363 30.3244 59.234 30.1263 59.234 29.8817V4.60361H65.34C68.2244 4.60361 70.0038 5.78015 70.4807 7.95849C70.4923 8.04003 70.5156 8.10992 70.5272 8.19147C70.5388 8.24971 70.5388 8.3196 70.5504 8.37785C70.5621 8.48269 70.5737 8.58753 70.5853 8.69237C70.597 8.85545 70.6086 9.01854 70.6086 9.18162C70.6202 9.95045 70.4923 10.7076 70.2248 11.4182C69.5153 13.0491 67.8522 13.9227 65.3749 13.9227H61.3973C61.3275 13.9227 61.2577 13.9577 61.2344 14.0276C61.1995 14.0858 61.1995 14.1673 61.2461 14.2256L62.0253 15.4487L71.4111 30.1147C71.4925 30.2428 71.6321 30.3127 71.7833 30.3244H76.5285C76.6913 30.3244 76.8425 30.2312 76.924 30.0797C77.0054 29.9283 76.9937 29.7536 76.8891 29.6254L68.55 17.7086Z" fill="white"/>
<path d="M24.7031 0.200317H20.1905C20.0276 0.200317 19.8764 0.293509 19.8066 0.433295L12.6539 13.713L5.50116 0.433295C5.43138 0.293509 5.28018 0.200317 5.11735 0.200317H0.441902C0.290706 0.200317 0.13951 0.281859 0.069727 0.421646C-0.0116863 0.561432 -0.0116863 0.724515 0.069727 0.864302L10.0836 18.3143V29.7885C10.0836 30.0797 10.3162 30.3127 10.6069 30.3127H14.5962C14.887 30.3127 15.1196 30.0797 15.1196 29.7885V18.2328L25.0985 0.864302C25.2148 0.654622 25.145 0.3867 24.9357 0.270211C24.8543 0.223616 24.7729 0.200317 24.7031 0.200317Z" fill="white"/>
</g>
<defs>
<clipPath id="clip0_178_235">
<rect width="135" height="31" fill="white"/>
</clipPath>
</defs>
</svg>
